<svg xmlns="http://www.w3.org/2000/svg" fill="none" viewBox="0 0 275 47" height="47" width="275">
<path fill="white" d="M6.97309 5.51094H0V24.1333H6.97309C12.9131 24.1333 16.7309 20.3406 16.7309 14.8228C16.7309 9.30504 12.9131 5.51234 6.97309 5.51234V5.51094ZM4.53363 20.2064V9.38333H6.68091C10.1018 9.38333 12.1162 11.3992 12.1162 14.8214C12.1162 18.2437 10.1004 20.2064 6.68091 20.2064H4.53363Z"></path>
<path fill="white" d="M6.97309 5.51094H0V24.1333H6.97309C12.9131 24.1333 16.7309 20.3406 16.7309 14.8228C16.7309 9.30504 12.9131 5.51234 6.97309 5.51234V5.51094ZM4.53363 20.2064V9.38333H6.68091C10.1018 9.38333 12.1162 11.3992 12.1162 14.8214C12.1162 18.2437 10.1004 20.2064 6.68091 20.2064H4.53363Z"></path>
<path fill="white" d="M31.9664 24.1319H36.7656L30.0302 5.50955H24.7794L18.0439 24.1319H22.7901L23.9042 20.8425H30.8508L31.9664 24.1319ZM29.6863 17.3406H25.0995L27.3796 10.5227L29.6863 17.3406Z"></path>
<path fill="white" d="M31.9664 24.1319H36.7656L30.0302 5.50955H24.7794L18.0439 24.1319H22.7901L23.9042 20.8425H30.8508L31.9664 24.1319ZM29.6863 17.3406H25.0995L27.3796 10.5227L29.6863 17.3406Z"></path>
<path fill="white" d="M50.9325 5.51094V17.0498L43.3485 5.51094H38.8135V24.1333H43.3485V12.6476L50.9325 24.1333H55.4675V5.51094H50.9325Z"></path>
<path fill="white" d="M50.9325 5.51094V17.0498L43.3485 5.51094H38.8135V24.1333H43.3485V12.6476L50.9325 24.1333H55.4675V5.51094H50.9325Z"></path>
<path fill="white" d="M67.452 5.29825C61.8839 5.29825 57.9863 9.22376 57.9863 14.7947C57.9863 20.3656 61.9104 24.2645 67.4786 24.2645C72.3841 24.2645 75.4862 21.0548 76.441 17.8451V13.6274H66.5769V16.9699H72.3309C71.6417 19.0655 70.0774 20.2594 67.8239 20.2594C64.5624 20.2594 62.5996 18.2435 62.5996 14.7947C62.5996 11.5584 64.5358 9.48937 67.452 9.48937C69.1491 9.48937 70.4213 10.152 71.1119 11.399H76.1236C75.1423 7.57974 71.9059 5.29825 67.452 5.29825Z"></path>
<path fill="white" d="M67.452 5.29825C61.8839 5.29825 57.9863 9.22376 57.9863 14.7947C57.9863 20.3656 61.9104 24.2645 67.4786 24.2645C72.3841 24.2645 75.4862 21.0548 76.441 17.8451V13.6274H66.5769V16.9699H72.3309C71.6417 19.0655 70.0774 20.2594 67.8239 20.2594C64.5624 20.2594 62.5996 18.2435 62.5996 14.7947C62.5996 11.5584 64.5358 9.48937 67.452 9.48937C69.1491 9.48937 70.4213 10.152 71.1119 11.399H76.1236C75.1423 7.57974 71.9059 5.29825 67.452 5.29825Z"></path>
<path fill="white" d="M90.3526 5.51094H78.9507V24.1333H90.3526V20.4986H83.4843V16.4137H89.5571V12.9118H83.4843V9.14567H90.3526V5.51094Z"></path>
<path fill="white" d="M90.3526 5.51094H78.9507V24.1333H90.3526V20.4986H83.4843V16.4137H89.5571V12.9118H83.4843V9.14567H90.3526V5.51094Z"></path>
<path fill="white" d="M103.136 11.5586C103.136 13.0181 102.341 13.8932 100.644 13.8932H97.8325V9.27708H100.644C102.341 9.27708 103.136 10.1788 103.136 11.5586ZM93.2988 5.51094V24.1333H97.8339V17.1043H98.9215L102.792 24.1333H107.91L103.614 16.759C106.478 15.9105 107.751 13.7087 107.751 11.374C107.751 8.13773 105.471 5.51094 100.911 5.51094H93.2988Z"></path>
<path fill="white" d="M103.136 11.5586C103.136 13.0181 102.341 13.8932 100.644 13.8932H97.8325V9.27708H100.644C102.341 9.27708 103.136 10.1788 103.136 11.5586ZM93.2988 5.51094V24.1333H97.8339V17.1043H98.9215L102.792 24.1333H107.91L103.614 16.759C106.478 15.9105 107.751 13.7087 107.751 11.374C107.751 8.13773 105.471 5.51094 100.911 5.51094H93.2988Z"></path>
<path fill="white" d="M155.442 14.8743C155.442 20.4186 159.499 24.291 164.67 24.291C168.674 24.291 171.856 22.3017 173.236 18.7467H170.346C169.338 20.9485 167.375 22.1955 164.672 22.1955C160.801 22.1955 157.91 19.3841 157.91 14.8743C157.91 10.3379 160.801 7.52654 164.672 7.52654C167.377 7.52654 169.338 8.77353 170.346 11.0019H173.236C171.857 7.4203 168.676 5.40442 164.67 5.40442C159.499 5.40442 155.442 9.32993 155.442 14.8743Z"></path>
<path fill="white" d="M155.442 14.8743C155.442 20.4186 159.499 24.291 164.67 24.291C168.674 24.291 171.856 22.3017 173.236 18.7467H170.346C169.338 20.9485 167.375 22.1955 164.672 22.1955C160.801 22.1955 157.91 19.3841 157.91 14.8743C157.91 10.3379 160.801 7.52654 164.672 7.52654C167.377 7.52654 169.338 8.77353 170.346 11.0019H173.236C171.857 7.4203 168.676 5.40442 164.67 5.40442C159.499 5.40442 155.442 9.32993 155.442 14.8743Z"></path>
<path fill="white" d="M197.402 14.8744C197.402 9.32999 193.345 5.43105 188.121 5.43105C182.924 5.43105 178.841 9.32999 178.841 14.8744C178.841 20.4187 182.924 24.3177 188.121 24.3177C193.345 24.3177 197.402 20.4187 197.402 14.8744ZM181.307 14.8744C181.307 10.3379 184.223 7.52661 188.122 7.52661C192.021 7.52661 194.937 10.3379 194.937 14.8744C194.937 19.3842 192.021 22.2221 188.122 22.2221C184.223 22.2221 181.307 19.3842 181.307 14.8744Z"></path>
<path fill="white" d="M197.402 14.8744C197.402 9.32999 193.345 5.43105 188.121 5.43105C182.924 5.43105 178.841 9.32999 178.841 14.8744C178.841 20.4187 182.924 24.3177 188.121 24.3177C193.345 24.3177 197.402 20.4187 197.402 14.8744ZM181.307 14.8744C181.307 10.3379 184.223 7.52661 188.122 7.52661C192.021 7.52661 194.937 10.3379 194.937 14.8744C194.937 19.3842 192.021 22.2221 188.122 22.2221C184.223 22.2221 181.307 19.3842 181.307 14.8744Z"></path>
<path fill="white" d="M203.505 24.1317H205.918V15.8025H212.441V13.8398H205.918V7.60623H213.952V5.64348H203.505V24.1331V24.1317Z"></path>
<path fill="white" d="M203.505 24.1317H205.918V15.8025H212.441V13.8398H205.918V7.60623H213.952V5.64348H203.505V24.1331V24.1317Z"></path>
<path fill="white" d="M219.781 24.1317H222.194V15.8025H228.717V13.8398H222.194V7.60623H230.228V5.64348H219.781V24.1331V24.1317Z"></path>
<path fill="white" d="M219.781 24.1317H222.194V15.8025H228.717V13.8398H222.194V7.60623H230.228V5.64348H219.781V24.1331V24.1317Z"></path>
<path fill="white" d="M246.004 5.61559H236.061V24.1317H246.004V22.1424H238.473V15.7761H245.209V13.7867H238.473V7.6063H246.004V5.61559Z"></path>
<path fill="white" d="M246.004 5.61559H236.061V24.1317H246.004V22.1424H238.473V15.7761H245.209V13.7867H238.473V7.6063H246.004V5.61559Z"></path>
<path fill="white" d="M262.516 5.61559H252.572V24.1317H262.516V22.1424H254.985V15.7761H261.72V13.7867H254.985V7.6063H262.516V5.61559Z"></path>
<path fill="white" d="M262.516 5.61559H252.572V24.1317H262.516V22.1424H254.985V15.7761H261.72V13.7867H254.985V7.6063H262.516V5.61559Z"></path><g fill="white" style="
">
<!-- Registered Symbol -->
<circle cx="270" cy="6.5" r="3.2" stroke="white" stroke-width="0.6" fill="none"></circle>
<path d="M268.8 7.9V5.1h1.3c.7 0 1.1.3 1.1.9 0 .4-.2.7-.6.8l.7 1.1h-.7l-.6-1h-.4v1h-.8zm.8-1.6h.4c.4 0 .6-.1.6-.4s-.2-.4-.6-.4h-.4v.8z"></path>
</g>
<path fill="white" d="M148.672 25.7255L141.425 13.236L134.178 0.757701C134.044 0.527036 133.851 0.335513 133.619 0.202706C133.387 0.0698986 133.124 0 132.857 0C132.59 0 132.327 0.0698986 132.095 0.202706C131.863 0.335513 131.67 0.527036 131.536 0.757701L124.289 13.236L117.041 25.7255C116.909 25.9562 116.839 26.2176 116.84 26.4832C116.84 26.7488 116.911 27.0102 117.046 27.2409C117.18 27.4716 117.371 27.6631 117.602 27.7959C117.833 27.9287 118.096 28 118.363 28H147.354C147.621 28 147.885 27.9315 148.117 27.7987C148.349 27.6659 148.542 27.4744 148.676 27.2437C148.81 27.013 148.88 26.7516 148.88 26.4846C148.88 26.2176 148.809 25.9562 148.675 25.7255H148.672ZM131.355 21.3974C131.442 22.5213 131.628 23.6355 131.913 24.7259C129.126 24.1989 127.019 21.2632 127.019 17.7235C127.019 13.9783 129.4 10.9098 132.398 10.6554C132.798 11.7066 133.071 12.8026 133.212 13.9182C133.273 14.6172 132.872 15.5832 132.464 16.5814C131.878 18.0017 131.221 19.6108 131.348 21.3806L131.355 21.3974ZM133.424 24.7595C133.38 24.6379 133.357 24.4981 133.324 24.3653C133.047 23.3517 132.874 22.3116 132.805 21.2632C132.693 19.8372 133.262 18.456 133.803 17.1294C134.288 15.9593 134.74 14.8549 134.662 13.8008C134.545 12.7719 134.316 11.7597 133.975 10.7826C136.601 11.4424 138.574 14.2999 138.574 17.7179C138.574 21.375 136.311 24.3765 133.423 24.7539"></path>
<path fill="white" d="M148.672 25.7255L141.425 13.236L134.178 0.757701C134.044 0.527036 133.851 0.335513 133.619 0.202706C133.387 0.0698986 133.124 0 132.857 0C132.59 0 132.327 0.0698986 132.095 0.202706C131.863 0.335513 131.67 0.527036 131.536 0.757701L124.289 13.236L117.041 25.7255C116.909 25.9562 116.839 26.2176 116.84 26.4832C116.84 26.7488 116.911 27.0102 117.046 27.2409C117.18 27.4716 117.371 27.6631 117.602 27.7959C117.833 27.9287 118.096 28 118.363 28H147.354C147.621 28 147.885 27.9315 148.117 27.7987C148.349 27.6659 148.542 27.4744 148.676 27.2437C148.81 27.013 148.88 26.7516 148.88 26.4846C148.88 26.2176 148.809 25.9562 148.675 25.7255H148.672ZM131.355 21.3974C131.442 22.5213 131.628 23.6355 131.913 24.7259C129.126 24.1989 127.019 21.2632 127.019 17.7235C127.019 13.9783 129.4 10.9098 132.398 10.6554C132.798 11.7066 133.071 12.8026 133.212 13.9182C133.273 14.6172 132.872 15.5832 132.464 16.5814C131.878 18.0017 131.221 19.6108 131.348 21.3806L131.355 21.3974ZM133.424 24.7595C133.38 24.6379 133.357 24.4981 133.324 24.3653C133.047 23.3517 132.874 22.3116 132.805 21.2632C132.693 19.8372 133.262 18.456 133.803 17.1294C134.288 15.9593 134.74 14.8549 134.662 13.8008C134.545 12.7719 134.316 11.7597 133.975 10.7826C136.601 11.4424 138.574 14.2999 138.574 17.7179C138.574 21.375 136.311 24.3765 133.423 24.7539"></path>
<path fill="white" d="M205.642 40.5097C206.539 37.808 206.843 34.8978 206.632 32.0386C206.614 31.7968 206.266 31.7999 206.252 32.0445C206.074 34.0679 205.835 36.2871 205.586 38.313C205.492 39.0079 205.416 39.7194 205.281 40.3843C205.228 40.6205 205.558 40.7369 205.642 40.5097Z"></path>
<path fill="white" d="M213.997 35.0579C213.637 34.4718 213.104 34.0681 212.588 33.7519C211.551 33.1179 210.483 32.5913 209.406 32.0882C207.855 31.3703 206.279 30.6739 204.703 30.0194C204.673 30.0135 204.657 30.0059 204.614 30.0034C204.549 29.9843 204.374 30.0458 204.345 30.1703C204.328 30.2208 204.329 30.2593 204.33 30.2963C204.337 30.3519 204.35 30.3897 204.362 30.4186C204.46 30.6234 204.561 30.7258 204.668 30.8538C204.992 31.2095 205.336 31.5179 205.738 31.7751C205.942 31.9081 206.132 31.5583 205.925 31.4289C205.608 31.2106 205.261 30.9259 204.988 30.6072C207.467 31.7179 209.993 32.8289 212.343 34.2129L212.707 34.4522C213.036 34.6974 213.366 34.9993 213.577 35.3584C213.872 35.8261 213.905 36.395 213.657 36.8955C213.12 37.9367 212.05 38.5887 211.203 39.3482C209.33 40.8763 207.427 42.3288 205.564 43.8856C204.643 44.6958 203.77 45.5846 203.041 46.5963C202.983 46.6743 202.986 46.789 203.052 46.8631C203.123 46.9431 203.24 46.945 203.313 46.8676C204.969 45.069 206.878 43.6701 208.793 42.2179C209.747 41.4826 210.692 40.7327 211.632 39.9662C212.964 38.8937 215.182 37.0886 213.997 35.0576"></path>
<path fill="white" d="M220.517 37.1762C220.377 37.0264 220.152 37.0278 220.014 37.1801C219.667 37.5622 219.362 37.9466 219.061 38.3523C218.462 39.1726 217.925 40.0415 217.498 40.9777C217.413 40.3608 217.291 39.7548 217.101 39.1302C217.045 38.9844 217.004 38.8424 216.86 38.669C216.821 38.6266 216.768 38.5761 216.681 38.5436C216.593 38.5077 216.472 38.5231 216.4 38.566C216.335 38.6025 216.321 38.625 216.274 38.6634C216.024 38.9033 215.864 39.211 215.699 39.4812C215.559 39.7264 215.428 39.9727 215.299 40.2202C215.257 40.2951 215.221 40.3711 215.184 40.4474C214.981 40.1526 214.773 39.865 214.539 39.5875C214.519 39.5645 214.493 39.5505 214.469 39.5331C214.481 39.5261 214.492 39.5177 214.505 39.5112C214.705 39.4119 214.775 39.13 214.647 38.9353C214.534 38.7599 214.311 38.717 214.149 38.8399C213.355 39.4414 212.516 40.0095 211.944 40.8952C211.743 41.2549 211.555 41.6412 211.704 42.1111C212.571 43.5131 213.943 41.6036 214.407 40.6177C214.575 40.8475 214.738 41.0829 214.889 41.3203L215.034 41.4776C215.195 41.6645 215.513 41.5276 215.507 41.2664C215.51 40.9696 215.656 40.7339 215.759 40.4839C215.973 40.0227 216.218 39.4997 216.534 39.1336C216.94 40.1338 216.967 41.4468 216.932 42.5258C216.91 42.968 217.511 43.0838 217.628 42.6563C218.187 40.8122 219.28 39.1297 220.512 37.7328C220.658 37.5824 220.661 37.3296 220.517 37.1762M213.921 39.865C213.835 40.6593 213.269 41.6067 212.631 42.0099C212.522 42.0629 212.419 42.0887 212.333 42.0668C212.235 42.0444 212.158 41.9854 212.156 41.9293C212.133 41.733 212.322 41.4628 212.447 41.2863C212.855 40.7347 213.36 40.2502 213.921 39.865Z"></path>
<path fill="white" d="M223.29 37.2253C223.248 37.1997 223.212 37.1748 223.162 37.1509C223.109 37.1285 223.049 37.1015 223 37.0945C222.163 36.9775 221.399 37.5622 220.806 38.0947C220.395 38.4959 220.033 38.9841 219.83 39.5895C219.341 41.2058 220.436 42.1125 221.846 41.7332C222.374 41.6193 222.865 41.4196 223.342 41.1713C223.393 41.1443 223.419 41.0798 223.4 41.0203C223.38 40.9558 223.316 40.9219 223.256 40.9435C222.78 41.1219 222.278 41.2518 221.787 41.3141C221.309 41.3665 220.777 41.343 220.503 41.0562C220.366 40.9213 220.303 40.719 220.281 40.4926C220.265 40.2763 220.305 40.0561 220.38 39.8431C220.827 39.9245 221.735 39.5808 221.98 39.4983C222.49 39.28 222.991 39.0402 223.417 38.504C223.599 38.3026 223.756 37.7816 223.535 37.4822C223.462 37.3608 223.374 37.287 223.29 37.2255M220.742 39.2138C221.24 38.5293 222.005 37.9819 222.749 37.8458C222.791 37.8428 222.828 37.8464 222.849 37.8523C222.865 37.8523 222.862 37.8593 222.871 37.8582L222.913 37.8818C222.926 37.8913 222.935 37.8983 222.942 37.9036C222.934 37.9306 222.911 37.9856 222.871 38.0386C222.337 38.6662 221.525 39.009 220.742 39.2138Z"></path>
<path fill="white" d="M233.865 41.1231C233.806 41.2435 233.841 41.3958 233.949 41.4688C234.063 41.5462 234.213 41.5072 234.282 41.3829C234.925 40.2703 235.751 39.2476 236.62 38.3423C236.827 38.142 236.722 37.7368 236.445 37.6878C236.023 37.6128 235.606 37.6493 235.194 37.7248C235.607 37.5245 236.047 37.373 236.456 37.2537C236.647 37.2027 236.764 36.992 236.716 36.7841C236.669 36.5762 236.475 36.4499 236.284 36.5013C235.582 36.694 234.905 36.9735 234.277 37.3716C234.062 37.5169 233.862 37.6398 233.639 37.9015C233.62 37.9259 233.6 37.956 233.579 37.9905C233.382 38.0009 233.24 38.0079 232.987 38.0211C232.585 35.5216 232.437 32.9697 232.589 30.4522L232.59 30.4144C232.58 29.9147 231.88 29.9282 231.886 30.4284V30.4348C231.932 33.326 230.032 35.6257 229.028 38.2236C229.025 38.2236 228.929 38.2287 228.929 38.2287C228.805 38.2281 228.686 38.2946 228.621 38.4206C228.528 38.6004 228.587 38.8288 228.753 38.9292C228.762 38.9343 228.77 38.9401 228.778 38.9446C228.73 39.104 228.682 39.2633 228.642 39.4258C228.309 40.5003 228.207 41.6026 227.945 42.7027L227.943 42.7086C227.807 43.3292 228.71 43.3895 228.645 42.756C228.522 41.6854 228.9 40.6423 229.241 39.657C229.283 39.5405 229.327 39.4252 229.371 39.3102C229.992 39.7069 230.597 40.1395 231.183 40.5907C231.954 41.2152 232.789 41.7583 233.353 42.6351C233.627 43.0048 234.076 42.662 233.913 42.2333C233.594 41.1018 233.333 39.9462 233.12 38.7786C233.365 38.7656 233.596 38.7541 233.805 38.7435C233.808 38.7449 233.813 38.7466 233.816 38.748C233.894 38.769 233.948 38.7699 233.994 38.7704C234.141 38.7659 234.247 38.7424 234.349 38.7154C234.662 38.6994 234.855 38.6899 234.855 38.6899C234.985 38.6823 235.071 38.6144 235.123 38.5249C235.276 38.4935 235.429 38.4705 235.584 38.4539C234.933 39.2844 234.35 40.1592 233.865 41.1237M230.195 37.2888C230.239 37.2537 230.278 37.2094 230.304 37.1525C230.809 36.1913 231.75 35.5611 231.919 34.2692C231.952 34.0215 231.799 33.87 231.626 33.838C231.743 33.5243 231.856 33.2095 231.961 32.8908C232.047 34.6185 232.208 36.34 232.448 38.0491C231.183 38.1136 230.492 38.1495 229.818 38.1841C229.941 37.8847 230.067 37.5865 230.195 37.2888ZM233.064 41.5998C232.485 41.1801 231.908 40.6336 231.42 40.2419C230.91 39.8132 230.402 39.3806 229.895 38.9441C230.612 38.9076 231.634 38.8551 232.564 38.8077C232.708 39.7425 232.875 40.6731 233.064 41.5995"></path>
<path fill="white" d="M237.843 34.061C237.772 34.0476 237.72 34.0201 237.574 34.0336C237.542 34.038 237.478 34.049 237.409 34.1026C237.369 34.1365 237.335 34.1724 237.31 34.2266C237.283 34.2835 237.274 34.3354 237.274 34.3719C237.274 34.5327 237.314 34.5792 237.332 34.6266C237.42 34.795 237.494 34.88 237.57 34.9858C237.728 35.206 238.022 35.5219 238.107 35.7651C238.194 36.3762 239.03 36.1119 238.8 35.5449C238.723 35.3505 238.599 35.1866 238.507 35.0809C238.439 34.9964 238.356 34.9075 238.272 34.8185C238.398 34.8651 238.524 34.9139 238.646 34.9658C239.228 35.243 239.839 35.5553 240.255 36.0704C240.373 36.2354 240.436 36.4071 240.399 36.5406C240.298 36.9087 239.896 37.219 239.594 37.4538C238.997 37.9063 238.044 38.42 237.36 38.8207C237.67 38.0444 237.985 37.2804 238.305 36.5496C238.507 36.0659 237.835 35.7528 237.651 36.2424C237.288 37.258 236.886 38.3061 236.474 39.3593C236.075 39.6197 235.738 39.9398 236.002 40.2801C236.027 40.309 236.057 40.3267 236.086 40.3455C235.62 41.5261 235.153 42.7036 234.724 43.8392C234.384 44.6865 234.106 45.6118 233.989 46.5561C233.959 46.7705 234.099 46.9708 234.297 46.9969C234.492 47.0238 234.67 46.8729 234.695 46.6602C234.79 45.7798 235.008 44.9446 235.336 44.1077C235.849 42.7569 236.382 41.3255 236.93 39.9126C238.011 39.0173 239.416 38.4102 240.428 37.3907C241.971 35.75 238.993 34.4645 237.843 34.0608"></path>
<path fill="white" d="M243.642 34.8874C243.668 34.863 243.647 34.8656 243.638 34.8541C243.631 34.84 243.671 34.8526 243.713 34.8846L244.345 35.5481C244.492 35.696 244.631 35.8509 244.771 36.0063C244.763 36.0627 244.756 36.1196 244.75 36.1771C244.515 36.2725 244.417 36.6333 244.609 36.8412C244.645 36.8827 244.688 36.9142 244.733 36.9352C244.794 37.7735 245.144 38.4224 245.971 37.9099C246.151 37.7396 246.549 37.5356 246.363 37.2438C246.143 36.9961 245.923 37.4057 245.731 37.4871C245.622 37.558 245.508 37.5881 245.462 37.574C245.425 37.5695 245.38 37.5235 245.336 37.4063C245.285 37.2048 245.258 36.9826 245.252 36.7548C245.462 36.5615 245.687 36.408 245.914 36.2453C246.312 35.9984 246.956 35.37 246.61 34.764C246.26 34.0421 245.401 34.3833 245.105 34.9688C245.021 35.0917 244.947 35.2665 244.887 35.4699C244.578 35.1801 244.304 34.8543 244.051 34.4947C243.678 34.0141 243.184 34.3838 242.915 34.7365C242.757 34.9354 242.609 35.1416 242.467 35.3515C242.309 35.2202 242.043 35.2362 241.959 35.5049L241.291 37.6568C241.117 38.1225 240.967 38.6014 240.846 39.0916C240.727 39.5247 241.326 39.7346 241.46 39.3048L241.465 39.2857C241.961 37.7129 242.719 36.1923 243.642 34.8872M246.027 34.8768C246.093 34.8813 246.154 34.9191 246.21 35.0162C246.26 35.1096 246.266 35.173 246.237 35.2701C246.08 35.5678 245.757 35.8222 245.406 35.983C245.395 35.9364 245.37 35.8955 245.337 35.8601C245.386 35.6497 245.453 35.4494 245.542 35.274C245.669 35.0448 245.882 34.8599 246.027 34.8768Z"></path>
<path fill="white" d="M251.331 31.616C250.931 32.3704 250.255 33.3846 249.265 34.7136C248.904 34.1037 248.312 33.0774 247.914 33.5451C247.79 33.6974 247.803 33.9297 247.943 34.0641C248.273 34.4168 248.544 34.8948 248.798 35.3331C248.188 36.1343 247.478 37.0352 246.657 38.0528C244.524 40.6917 243.138 43.3915 242.832 44.2169C242.48 45.2515 242.799 46.1544 243.161 46.1072C243.419 46.1156 243.603 45.7924 243.48 45.5436C243.471 45.5251 243.277 45.0939 243.493 44.5064C243.741 43.835 245.078 41.1796 247.192 38.5642C249.728 35.4248 251.239 33.34 251.948 32.0034C252.182 31.5582 251.559 31.1837 251.331 31.6163"></path>
<path fill="white" d="M195.84 39.625C196.31 39.625 196.53 39.44 196.53 39.115C196.53 38.74 196.225 38.615 195.82 38.615C195.6 38.615 195.17 38.615 194.87 38.62C194.87 38.965 194.875 39.315 194.88 39.62C195.065 39.62 195.535 39.625 195.84 39.625ZM195.815 38.25C196.315 38.25 196.47 37.985 196.47 37.695C196.47 37.345 196.24 37.22 195.865 37.22C195.52 37.22 195.03 37.225 194.885 37.225C194.875 37.505 194.87 37.865 194.865 38.25C195.12 38.25 195.46 38.25 195.815 38.25ZM194.375 39.99C194.385 39.035 194.395 37.815 194.375 36.86C194.865 36.87 195.505 36.85 195.985 36.85C196.585 36.85 196.945 37.09 196.945 37.66C196.945 38.06 196.7 38.35 196.265 38.41V38.445C196.705 38.495 197.03 38.66 197.03 39.19C197.03 39.67 196.75 40 196 40C195.485 40 194.81 39.985 194.375 39.99ZM197.98 36.86C198.09 37.15 198.58 38.055 198.89 38.595H198.92C199.215 38.065 199.645 37.27 199.85 36.86H200.44C200.025 37.51 199.58 38.275 199.135 39.05C199.14 39.38 199.15 39.825 199.155 40H198.645C198.655 39.83 198.66 39.38 198.665 39.045C198.335 38.425 197.595 37.215 197.375 36.86H197.98Z"></path>
</svg>